<svg width="64" height="68" viewBox="0 0 64 68" fill="none" xmlns="http://www.w3.org/2000/svg">
<path fill-rule="evenodd" clip-rule="evenodd" d="M32 8.74268C24.5023 8.74268 18.4242 14.8207 18.4242 22.3184V23.84C17.0484 24.0709 16 25.2675 16 26.7089V30.1193C16 31.5857 17.085 32.7987 18.4959 32.9993C18.9902 37.8103 21.9967 41.8767 26.1818 43.8648V48.3673C15.8987 49.0107 7.75757 57.5545 7.75757 67.9998H56.2424C56.2424 57.5545 48.1013 49.0107 37.8182 48.3673V43.8648C42.0033 41.8767 45.0098 37.8103 45.504 32.9993C46.915 32.7987 48 31.5857 48 30.1193V26.7089C48 25.2675 46.9516 24.0709 45.5757 23.84V22.3184C45.5757 14.8207 39.4977 8.74268 32 8.74268Z" fill="#D0C6AC"/>
<mask id="mask0" mask-type="alpha" maskUnits="userSpaceOnUse" x="7" y="8" width="50" height="60">
<path fill-rule="evenodd" clip-rule="evenodd" d="M32 8.74268C24.5023 8.74268 18.4242 14.8207 18.4242 22.3184V23.84C17.0484 24.0709 16 25.2675 16 26.7089V30.1193C16 31.5857 17.085 32.7987 18.4959 32.9993C18.9902 37.8103 21.9967 41.8767 26.1818 43.8648V48.3673C15.8987 49.0107 7.75757 57.5545 7.75757 67.9998H56.2424C56.2424 57.5545 48.1013 49.0107 37.8182 48.3673V43.8648C42.0033 41.8767 45.0098 37.8103 45.504 32.9993C46.915 32.7987 48 31.5857 48 30.1193V26.7089C48 25.2675 46.9516 24.0709 45.5757 23.84V22.3184C45.5757 14.8207 39.4977 8.74268 32 8.74268Z" fill="white"/>
</mask>
<g mask="url(#mask0)">
<rect y="8.74268" width="64" height="59.2571" fill="#AE5D29"/>
<path fill-rule="evenodd" clip-rule="evenodd" d="M18.4242 31.5957V33.5386C18.4242 41.0362 24.5023 47.1143 32 47.1143C39.4977 47.1143 45.5757 41.0363 45.5757 33.5386V31.5957C45.5757 39.0934 39.4977 45.1715 32 45.1715C24.5023 45.1715 18.4242 39.0934 18.4242 31.5957Z" fill="black" fill-opacity="0.1"/>
</g>
<path fill-rule="evenodd" clip-rule="evenodd" d="M44.1212 50.113C44.1212 54.067 38.7486 57.2724 32.1212 57.2724C25.4938 57.2724 20.1212 54.067 20.1212 50.113C20.1212 49.9853 20.1268 49.8584 20.1379 49.7324C12.8838 52.6253 7.75757 59.7139 7.75757 67.9999H56.2424C56.2424 59.8095 51.2337 52.789 44.1123 49.8342C44.1182 49.9267 44.1212 50.0196 44.1212 50.113Z" fill="#E6E6E6"/>
<mask id="mask1" mask-type="alpha" maskUnits="userSpaceOnUse" x="7" y="49" width="50" height="19">
<path fill-rule="evenodd" clip-rule="evenodd" d="M44.1212 50.113C44.1212 54.067 38.7486 57.2724 32.1212 57.2724C25.4938 57.2724 20.1212 54.067 20.1212 50.113C20.1212 49.9853 20.1268 49.8584 20.1379 49.7324C12.8838 52.6253 7.75757 59.7139 7.75757 67.9999H56.2424C56.2424 59.8095 51.2337 52.789 44.1123 49.8342C44.1182 49.9267 44.1212 50.0196 44.1212 50.113Z" fill="white"/>
</mask>
<g mask="url(#mask1)">
<rect y="41.2856" width="64" height="26.7143" fill="#E6E6E6"/>
</g>
<path fill-rule="evenodd" clip-rule="evenodd" d="M27.4225 36.2165C27.679 38.5217 29.6305 40.314 32 40.314C34.3768 40.314 36.3331 38.5106 36.5798 36.1951C36.5997 36.0088 36.3919 35.6997 36.1316 35.6997C32.5209 35.6997 29.7546 35.6997 27.8998 35.6997C27.638 35.6997 27.3968 35.9859 27.4225 36.2165Z" fill="black" fill-opacity="0.7"/>
<mask id="mask2" mask-type="alpha" maskUnits="userSpaceOnUse" x="27" y="35" width="10" height="6">
<path fill-rule="evenodd" clip-rule="evenodd" d="M27.4225 36.2165C27.679 38.5217 29.6305 40.314 32 40.314C34.3768 40.314 36.3331 38.5106 36.5798 36.1951C36.5997 36.0088 36.3919 35.6997 36.1316 35.6997C32.5209 35.6997 29.7546 35.6997 27.8998 35.6997C27.638 35.6997 27.3968 35.9859 27.4225 36.2165Z" fill="white"/>
</mask>
<g mask="url(#mask2)">
<rect x="28.3636" y="33.0283" width="7.51515" height="3.88571" rx="1.94286" fill="white"/>
<path fill-rule="evenodd" clip-rule="evenodd" d="M30.7879 43.7139C32.2606 43.7139 33.4545 42.5179 33.4545 41.0425C33.4545 39.5671 32.2606 38.3711 30.7879 38.3711C29.3151 38.3711 28.1212 39.5671 28.1212 41.0425C28.1212 42.5179 29.3151 43.7139 30.7879 43.7139Z" fill="#FF4F6D"/>
<path fill-rule="evenodd" clip-rule="evenodd" d="M33.2121 43.7139C34.6849 43.7139 35.8788 42.5179 35.8788 41.0425C35.8788 39.5671 34.6849 38.3711 33.2121 38.3711C31.7394 38.3711 30.5455 39.5671 30.5455 41.0425C30.5455 42.5179 31.7394 43.7139 33.2121 43.7139Z" fill="#FF4F6D"/>
</g>
<path fill-rule="evenodd" clip-rule="evenodd" d="M29.0909 31.5713C29.0909 32.6443 30.3934 33.5141 32 33.5141C33.6066 33.5141 34.9091 32.6443 34.9091 31.5713" fill="black" fill-opacity="0.16"/>
<path fill-rule="evenodd" clip-rule="evenodd" d="M25.697 28.657C26.5003 28.657 27.1515 28.0046 27.1515 27.1998C27.1515 26.3951 26.5003 25.7427 25.697 25.7427C24.8936 25.7427 24.2424 26.3951 24.2424 27.1998C24.2424 28.0046 24.8936 28.657 25.697 28.657Z" fill="black" fill-opacity="0.6"/>
<path fill-rule="evenodd" clip-rule="evenodd" d="M38.303 28.657C39.1063 28.657 39.7576 28.0046 39.7576 27.1998C39.7576 26.3951 39.1063 25.7427 38.303 25.7427C37.4997 25.7427 36.8485 26.3951 36.8485 27.1998C36.8485 28.0046 37.4997 28.657 38.303 28.657Z" fill="black" fill-opacity="0.6"/>
<path d="M22.2134 24.0811C23.1625 22.7432 25.7644 21.9931 28.0056 22.5444C28.2656 22.6084 28.5282 22.4491 28.5921 22.1886C28.6559 21.928 28.4969 21.665 28.2369 21.601C25.634 20.9607 22.6211 21.8294 21.423 23.5183C21.2679 23.737 21.3191 24.0402 21.5373 24.1956C21.7556 24.351 22.0583 24.2997 22.2134 24.0811Z" fill="black" fill-opacity="0.6"/>
<path d="M41.7867 24.0811C40.8376 22.7432 38.2358 21.9931 35.9945 22.5444C35.7345 22.6084 35.4719 22.4491 35.408 22.1886C35.3442 21.928 35.5032 21.665 35.7633 21.601C38.3661 20.9607 41.379 21.8294 42.5771 23.5183C42.7323 23.737 42.6811 24.0402 42.4628 24.1956C42.2445 24.351 41.9418 24.2997 41.7867 24.0811Z" fill="black" fill-opacity="0.6"/>
</svg>
