<svg width="264" height="280" viewBox="0 0 264 280" fill="none" xmlns="http://www.w3.org/2000/svg">
<path fill-rule="evenodd" clip-rule="evenodd" d="M132 36C101.072 36 76 61.0721 76 92V98.1659C70.3246 99.1181 66 104.054 66 110V124C66 130.052 70.4803 135.058 76.3051 135.881C78.3722 155.687 90.7626 172.422 108 180.611V199H104C64.2355 199 32 231.236 32 271V280H232V271C232 231.236 199.764 199 160 199H156V180.611C173.237 172.422 185.628 155.687 187.695 135.881C193.52 135.058 198 130.052 198 124V110C198 104.054 193.675 99.1181 188 98.1659V92C188 61.0721 162.928 36 132 36Z" fill="#D0C6AC"/>
<mask id="mask0" mask-type="alpha" maskUnits="userSpaceOnUse" x="32" y="36" width="200" height="244">
<path fill-rule="evenodd" clip-rule="evenodd" d="M132 36C101.072 36 76 61.0721 76 92V98.1659C70.3246 99.1181 66 104.054 66 110V124C66 130.052 70.4803 135.058 76.3051 135.881C78.3722 155.687 90.7626 172.422 108 180.611V199H104C64.2355 199 32 231.236 32 271V280H232V271C232 231.236 199.764 199 160 199H156V180.611C173.237 172.422 185.628 155.687 187.695 135.881C193.52 135.058 198 130.052 198 124V110C198 104.054 193.675 99.1181 188 98.1659V92C188 61.0721 162.928 36 132 36Z" fill="white"/>
</mask>
<g mask="url(#mask0)">
<rect y="36" width="264" height="244" fill="#EDB98A"/>
<path fill-rule="evenodd" clip-rule="evenodd" d="M76 130V138C76 168.928 101.072 194 132 194C162.928 194 188 168.928 188 138V130C188 160.928 162.928 186 132 186C101.072 186 76 160.928 76 130Z" fill="black" fill-opacity="0.1"/>
</g>
<path fill-rule="evenodd" clip-rule="evenodd" d="M166 202.5C166 214.374 151.002 224 132.5 224C113.998 224 99 214.374 99 202.5C99 201.377 99.1342 200.274 99.3929 199.197C61.7752 201.572 32 232.835 32 271.052V280H232V271.052C232 233.18 202.76 202.137 165.624 199.268C165.872 200.322 166 201.402 166 202.5Z" fill="#E6E6E6"/>
<mask id="mask1" mask-type="alpha" maskUnits="userSpaceOnUse" x="32" y="199" width="200" height="81">
<path fill-rule="evenodd" clip-rule="evenodd" d="M166 202.5C166 214.374 151.002 224 132.5 224C113.998 224 99 214.374 99 202.5C99 201.377 99.1342 200.274 99.3929 199.197C61.7752 201.572 32 232.835 32 271.052V280H232V271.052C232 233.18 202.76 202.137 165.624 199.268C165.872 200.322 166 201.402 166 202.5Z" fill="white"/>
</mask>
<g mask="url(#mask1)">
<rect y="170" width="264" height="110" fill="#262E33"/>
</g>
<path fill-rule="evenodd" clip-rule="evenodd" d="M113.118 149.128C114.176 158.62 122.226 166 132 166C141.804 166 149.874 158.574 150.892 149.04C150.974 148.273 150.117 147 149.043 147C134.149 147 122.738 147 115.087 147C114.007 147 113.012 148.178 113.118 149.128Z" fill="black" fill-opacity="0.7"/>
<mask id="mask2" mask-type="alpha" maskUnits="userSpaceOnUse" x="113" y="147" width="38" height="19">
<path fill-rule="evenodd" clip-rule="evenodd" d="M113.118 149.128C114.176 158.62 122.226 166 132 166C141.804 166 149.874 158.574 150.892 149.04C150.974 148.273 150.117 147 149.043 147C134.149 147 122.738 147 115.087 147C114.007 147 113.012 148.178 113.118 149.128Z" fill="white"/>
</mask>
<g mask="url(#mask2)">
<rect x="117" y="136" width="31" height="16" rx="5" fill="white"/>
<path fill-rule="evenodd" clip-rule="evenodd" d="M127 180C133.075 180 138 175.075 138 169C138 162.925 133.075 158 127 158C120.925 158 116 162.925 116 169C116 175.075 120.925 180 127 180Z" fill="#FF4F6D"/>
<path fill-rule="evenodd" clip-rule="evenodd" d="M137 180C143.075 180 148 175.075 148 169C148 162.925 143.075 158 137 158C130.925 158 126 162.925 126 169C126 175.075 130.925 180 137 180Z" fill="#FF4F6D"/>
</g>
<path fill-rule="evenodd" clip-rule="evenodd" d="M120 130C120 134.418 125.373 138 132 138V138C138.627 138 144 134.418 144 130" fill="black" fill-opacity="0.16"/>
<path fill-rule="evenodd" clip-rule="evenodd" d="M106 118C109.314 118 112 115.314 112 112C112 108.686 109.314 106 106 106C102.686 106 100 108.686 100 112C100 115.314 102.686 118 106 118Z" fill="black" fill-opacity="0.6"/>
<path fill-rule="evenodd" clip-rule="evenodd" d="M158 118C161.314 118 164 115.314 164 112C164 108.686 161.314 106 158 106C154.686 106 152 108.686 152 112C152 115.314 154.686 118 158 118Z" fill="black" fill-opacity="0.6"/>
<path d="M91.6302 99.1586C95.5451 93.6499 106.278 90.5608 115.523 92.8312C116.596 93.0946 117.679 92.4386 117.942 91.3659C118.206 90.2932 117.55 89.21 116.477 88.9466C105.74 86.31 93.3121 89.887 88.3697 96.8414C87.7299 97.7418 87.941 98.9904 88.8414 99.6303C89.7418 100.27 90.9904 100.059 91.6302 99.1586Z" fill="black" fill-opacity="0.6"/>
<path d="M172.37 99.1586C168.455 93.6499 157.722 90.5608 148.477 92.8312C147.405 93.0946 146.321 92.4386 146.058 91.3659C145.795 90.2932 146.451 89.21 147.523 88.9466C158.26 86.31 170.688 89.887 175.631 96.8414C176.27 97.7418 176.059 98.9904 175.159 99.6303C174.258 100.27 173.01 100.059 172.37 99.1586Z" fill="black" fill-opacity="0.6"/>
<mask id="mask3" mask-type="alpha" maskUnits="userSpaceOnUse" x="0" y="0" width="264" height="280">
<rect width="264" height="280" fill="white"/>
</mask>
<g mask="url(#mask3)">
<path fill-rule="evenodd" clip-rule="evenodd" d="M113.18 149.737C115.363 148.105 128.407 147.479 130.758 146.089C131.492 145.655 132.061 145.216 132.5 144.78C132.939 145.216 133.509 145.655 134.242 146.089C136.593 147.479 149.637 148.105 151.82 149.737C154.03 151.391 155.644 155.185 155.467 158.151C155.255 161.71 151.361 170.203 141.672 171.181C139.558 168.828 136.237 167.31 132.5 167.31C128.763 167.31 125.442 168.828 123.328 171.181C113.639 170.203 109.745 161.71 109.533 158.151C109.357 155.185 110.97 151.391 113.18 149.737M151.142 166.906C151.143 166.906 151.145 166.905 151.146 166.905C151.144 166.905 151.143 166.906 151.142 166.906M113.845 166.901C113.849 166.903 113.857 166.906 113.862 166.908C113.857 166.906 113.851 166.903 113.845 166.901M192.863 127.985C192.474 122.03 191.278 116.152 190.234 110.286C189.953 108.707 188.424 98 187.735 98C187.502 107.109 186.702 116.08 185.67 125.139C185.361 127.848 185.038 130.556 184.825 133.274C184.654 135.47 184.96 138.122 184.428 140.246C183.749 142.952 180.348 145.478 177.703 146.411C171.103 148.737 165.598 139.108 159.961 136.291C152.643 132.635 140.064 131.764 132.582 136.53C124.936 131.764 112.357 132.635 105.039 136.291C99.4024 139.108 93.897 148.737 87.2972 146.411C84.6521 145.478 81.2504 142.952 80.5724 140.246C80.0403 138.122 80.3463 135.47 80.175 133.274C79.9624 130.556 79.6389 127.848 79.3302 125.139C78.2983 116.08 77.4975 107.109 77.2654 98C76.5762 98 75.0468 108.707 74.7659 110.286C73.7221 116.152 72.5258 122.03 72.1376 127.985C71.7385 134.105 72.2149 140.167 73.4696 146.163C74.0687 149.028 74.7685 151.876 75.5189 154.704C76.3527 157.847 75.199 163.966 75.5723 167.192C76.2788 173.296 79.1543 185.2 82.3833 190.451C83.9441 192.989 85.7735 194.574 87.8165 196.619C89.7826 198.588 90.6039 201.64 92.7261 203.737C96.682 207.645 102.446 209.971 108.366 210.543C113.677 215.05 122.506 218 132.5 218C142.495 218 151.323 215.05 156.635 210.543C162.554 209.971 168.318 207.645 172.274 203.737C174.396 201.64 175.217 198.588 177.184 196.619C179.226 194.574 181.056 192.989 182.617 190.451C185.846 185.2 188.721 173.296 189.428 167.192C189.801 163.966 188.647 157.847 189.481 154.704C190.232 151.876 190.931 149.028 191.531 146.163C192.785 140.167 193.261 134.105 192.863 127.985Z" fill="#5E7AA9"/>
<mask id="mask4" mask-type="alpha" maskUnits="userSpaceOnUse" x="72" y="98" width="121" height="120">
<path fill-rule="evenodd" clip-rule="evenodd" d="M113.18 149.737C115.363 148.105 128.407 147.479 130.758 146.089C131.492 145.655 132.061 145.216 132.5 144.78C132.939 145.216 133.509 145.655 134.242 146.089C136.593 147.479 149.637 148.105 151.82 149.737C154.03 151.391 155.644 155.185 155.467 158.151C155.255 161.71 151.361 170.203 141.672 171.181C139.558 168.828 136.237 167.31 132.5 167.31C128.763 167.31 125.442 168.828 123.328 171.181C113.639 170.203 109.745 161.71 109.533 158.151C109.357 155.185 110.97 151.391 113.18 149.737M151.142 166.906C151.143 166.906 151.145 166.905 151.146 166.905C151.144 166.905 151.143 166.906 151.142 166.906M113.845 166.901C113.849 166.903 113.857 166.906 113.862 166.908C113.857 166.906 113.851 166.903 113.845 166.901M192.863 127.985C192.474 122.03 191.278 116.152 190.234 110.286C189.953 108.707 188.424 98 187.735 98C187.502 107.109 186.702 116.08 185.67 125.139C185.361 127.848 185.038 130.556 184.825 133.274C184.654 135.47 184.96 138.122 184.428 140.246C183.749 142.952 180.348 145.478 177.703 146.411C171.103 148.737 165.598 139.108 159.961 136.291C152.643 132.635 140.064 131.764 132.582 136.53C124.936 131.764 112.357 132.635 105.039 136.291C99.4024 139.108 93.897 148.737 87.2972 146.411C84.6521 145.478 81.2504 142.952 80.5724 140.246C80.0403 138.122 80.3463 135.47 80.175 133.274C79.9624 130.556 79.6389 127.848 79.3302 125.139C78.2983 116.08 77.4975 107.109 77.2654 98C76.5762 98 75.0468 108.707 74.7659 110.286C73.7221 116.152 72.5258 122.03 72.1376 127.985C71.7385 134.105 72.2149 140.167 73.4696 146.163C74.0687 149.028 74.7685 151.876 75.5189 154.704C76.3527 157.847 75.199 163.966 75.5723 167.192C76.2788 173.296 79.1543 185.2 82.3833 190.451C83.9441 192.989 85.7735 194.574 87.8165 196.619C89.7826 198.588 90.6039 201.64 92.7261 203.737C96.682 207.645 102.446 209.971 108.366 210.543C113.677 215.05 122.506 218 132.5 218C142.495 218 151.323 215.05 156.635 210.543C162.554 209.971 168.318 207.645 172.274 203.737C174.396 201.64 175.217 198.588 177.184 196.619C179.226 194.574 181.056 192.989 182.617 190.451C185.846 185.2 188.721 173.296 189.428 167.192C189.801 163.966 188.647 157.847 189.481 154.704C190.232 151.876 190.931 149.028 191.531 146.163C192.785 140.167 193.261 134.105 192.863 127.985Z" fill="white"/>
</mask>
<g mask="url(#mask4)">
<rect x="48" y="72" width="168" height="152" fill="#724133"/>
</g>
<path fill-rule="evenodd" clip-rule="evenodd" d="M87.1834 37.8562C92.3241 34.0244 98.402 30.7397 104.742 29.4783C111.189 28.1961 115.101 27.8846 121.447 29.4053C123.08 29.7965 123.631 30.1855 125.068 29.2568C126.279 28.4743 134.73 19.7669 160.489 24.5999C186.523 29.4847 194.258 68.6754 203.915 70.1663C207.395 70.7034 211.697 69.7816 211.831 67.6389C215.795 73.6726 216.839 81.646 215.159 88.7129C213.712 94.7989 210.662 100.517 205.17 103.85C200.444 106.717 193.91 107.966 188.449 107.437C185.963 107.197 183.703 106.674 181.417 105.671C178.658 104.462 176.46 102.28 173.753 101.128C176.579 103.576 179.655 105.735 182.929 107.546C184.568 108.453 186.232 109.078 188.042 109.57C189.277 109.906 191.803 111.051 192.998 110.752C185.19 112.148 177.837 110.932 170.678 107.589C167.447 106.081 164.34 104.257 161.487 102.113C158.654 99.9827 155.393 97.8062 153.176 95.0036C154.107 96.2071 152.479 94.4169 152.264 94.198C151.656 93.5782 151.061 92.9459 150.477 92.3029C149.475 91.1993 148.48 90.0752 147.547 88.912C145.553 86.4263 143.695 83.8298 142.039 81.1086C140.362 78.3527 133.681 67.2357 131.664 64.619C133.569 70.327 135.644 76.0373 138.071 81.5445C133.358 80.0744 128.788 76.0002 125.776 72.2035C122.384 67.9276 120.376 62.936 119.668 57.5379C115.843 67.9537 106.883 76.1676 97.6359 81.8329C99.6394 78.1026 102.692 74.9479 104.688 71.1548C95.4973 80.4839 80.1204 85.0482 76.093 98.7289C75.0607 93.9714 71.7405 90.1483 70.7458 85.2956C69.6415 79.9071 68.849 74.1869 69.0244 68.6797C69.4218 56.4379 77.6565 44.9575 87.1834 37.8562Z" fill="#28354B"/>
<mask id="mask5" mask-type="alpha" maskUnits="userSpaceOnUse" x="69" y="23" width="147" height="89">
<path fill-rule="evenodd" clip-rule="evenodd" d="M87.1834 37.8562C92.3241 34.0244 98.402 30.7397 104.742 29.4783C111.189 28.1961 115.101 27.8846 121.447 29.4053C123.08 29.7965 123.631 30.1855 125.068 29.2568C126.279 28.4743 134.73 19.7669 160.489 24.5999C186.523 29.4847 194.258 68.6754 203.915 70.1663C207.395 70.7034 211.697 69.7816 211.831 67.6389C215.795 73.6726 216.839 81.646 215.159 88.7129C213.712 94.7989 210.662 100.517 205.17 103.85C200.444 106.717 193.91 107.966 188.449 107.437C185.963 107.197 183.703 106.674 181.417 105.671C178.658 104.462 176.46 102.28 173.753 101.128C176.579 103.576 179.655 105.735 182.929 107.546C184.568 108.453 186.232 109.078 188.042 109.57C189.277 109.906 191.803 111.051 192.998 110.752C185.19 112.148 177.837 110.932 170.678 107.589C167.447 106.081 164.34 104.257 161.487 102.113C158.654 99.9827 155.393 97.8062 153.176 95.0036C154.107 96.2071 152.479 94.4169 152.264 94.198C151.656 93.5782 151.061 92.9459 150.477 92.3029C149.475 91.1993 148.48 90.0752 147.547 88.912C145.553 86.4263 143.695 83.8298 142.039 81.1086C140.362 78.3527 133.681 67.2357 131.664 64.619C133.569 70.327 135.644 76.0373 138.071 81.5445C133.358 80.0744 128.788 76.0002 125.776 72.2035C122.384 67.9276 120.376 62.936 119.668 57.5379C115.843 67.9537 106.883 76.1676 97.6359 81.8329C99.6394 78.1026 102.692 74.9479 104.688 71.1548C95.4973 80.4839 80.1204 85.0482 76.093 98.7289C75.0607 93.9714 71.7405 90.1483 70.7458 85.2956C69.6415 79.9071 68.849 74.1869 69.0244 68.6797C69.4218 56.4379 77.6565 44.9575 87.1834 37.8562Z" fill="white"/>
</mask>
<g mask="url(#mask5)">
<rect width="264" height="280" fill="#4A312C"/>
</g>
</g>
</svg>
