<svg width="264" height="280" viewBox="0 0 264 280" fill="none" xmlns="http://www.w3.org/2000/svg">
<path fill-rule="evenodd" clip-rule="evenodd" d="M132 36C101.072 36 76 61.0721 76 92V98.1659C70.3246 99.1181 66 104.054 66 110V124C66 130.052 70.4803 135.058 76.3051 135.881C78.3722 155.687 90.7626 172.422 108 180.611V199H104C64.2355 199 32 231.236 32 271V280H232V271C232 231.236 199.764 199 160 199H156V180.611C173.237 172.422 185.628 155.687 187.695 135.881C193.52 135.058 198 130.052 198 124V110C198 104.054 193.675 99.1181 188 98.1659V92C188 61.0721 162.928 36 132 36Z" fill="#D0C6AC"/>
<mask id="mask0" mask-type="alpha" maskUnits="userSpaceOnUse" x="32" y="36" width="200" height="244">
<path fill-rule="evenodd" clip-rule="evenodd" d="M132 36C101.072 36 76 61.0721 76 92V98.1659C70.3246 99.1181 66 104.054 66 110V124C66 130.052 70.4803 135.058 76.3051 135.881C78.3722 155.687 90.7626 172.422 108 180.611V199H104C64.2355 199 32 231.236 32 271V280H232V271C232 231.236 199.764 199 160 199H156V180.611C173.237 172.422 185.628 155.687 187.695 135.881C193.52 135.058 198 130.052 198 124V110C198 104.054 193.675 99.1181 188 98.1659V92C188 61.0721 162.928 36 132 36Z" fill="white"/>
</mask>
<g mask="url(#mask0)">
<rect y="36" width="264" height="244" fill="#EDB98A"/>
<path fill-rule="evenodd" clip-rule="evenodd" d="M76 130V138C76 168.928 101.072 194 132 194C162.928 194 188 168.928 188 138V130C188 160.928 162.928 186 132 186C101.072 186 76 160.928 76 130Z" fill="black" fill-opacity="0.1"/>
</g>
<path fill-rule="evenodd" clip-rule="evenodd" d="M166 202.5C166 214.374 151.002 224 132.5 224C113.998 224 99 214.374 99 202.5C99 201.377 99.1342 200.274 99.3929 199.197C61.7752 201.572 32 232.835 32 271.052V280H232V271.052C232 233.18 202.76 202.137 165.624 199.268C165.872 200.322 166 201.402 166 202.5Z" fill="#E6E6E6"/>
<mask id="mask1" mask-type="alpha" maskUnits="userSpaceOnUse" x="32" y="199" width="200" height="81">
<path fill-rule="evenodd" clip-rule="evenodd" d="M166 202.5C166 214.374 151.002 224 132.5 224C113.998 224 99 214.374 99 202.5C99 201.377 99.1342 200.274 99.3929 199.197C61.7752 201.572 32 232.835 32 271.052V280H232V271.052C232 233.18 202.76 202.137 165.624 199.268C165.872 200.322 166 201.402 166 202.5Z" fill="white"/>
</mask>
<g mask="url(#mask1)">
<rect y="170" width="264" height="110" fill="#25557C"/>
</g>
<path d="M118 150C118 155.372 124.158 159 132 159C139.842 159 146 155.372 146 150C146 148.895 145.05 148 144 148C142.707 148 142.13 148.905 142 150C140.758 152.938 137.683 154.716 132 155C126.317 154.716 123.242 152.938 122 150C121.87 148.905 121.293 148 120 148C118.95 148 118 148.895 118 150Z" fill="black" fill-opacity="0.6"/>
<path fill-rule="evenodd" clip-rule="evenodd" d="M120 130C120 134.418 125.373 138 132 138V138C138.627 138 144 134.418 144 130" fill="black" fill-opacity="0.16"/>
<path fill-rule="evenodd" clip-rule="evenodd" d="M106 126C113.732 126 120 119.732 120 112C120 104.268 113.732 98 106 98C98.268 98 92 104.268 92 112C92 119.732 98.268 126 106 126Z" fill="white"/>
<path fill-rule="evenodd" clip-rule="evenodd" d="M158 126C165.732 126 172 119.732 172 112C172 104.268 165.732 98 158 98C150.268 98 144 104.268 144 112C144 119.732 150.268 126 158 126Z" fill="white"/>
<path fill-rule="evenodd" clip-rule="evenodd" d="M106 110C109.314 110 112 107.314 112 104C112 100.686 109.314 98 106 98C102.686 98 100 100.686 100 104C100 107.314 102.686 110 106 110Z" fill="black" fill-opacity="0.7"/>
<path fill-rule="evenodd" clip-rule="evenodd" d="M158 110C161.314 110 164 107.314 164 104C164 100.686 161.314 98 158 98C154.686 98 152 100.686 152 104C152 107.314 154.686 110 158 110Z" fill="black" fill-opacity="0.7"/>
<path d="M91.9758 99.1279C93.471 89.6048 106.059 83.1087 115.164 87.301C116.167 87.763 117.355 87.3242 117.817 86.3208C118.279 85.3175 117.84 84.1297 116.836 83.6677C105.349 78.3782 89.9358 86.3325 88.0242 98.5075C87.8529 99.5987 88.5986 100.622 89.6898 100.793C90.781 100.965 91.8045 100.219 91.9758 99.1279Z" fill="black" fill-opacity="0.6"/>
<path d="M172.024 99.1279C170.529 89.6048 157.942 83.1087 148.837 87.301C147.833 87.763 146.646 87.3242 146.184 86.3208C145.722 85.3175 146.16 84.1297 147.164 83.6677C158.651 78.3782 174.064 86.3325 175.976 98.5075C176.147 99.5987 175.402 100.622 174.31 100.793C173.219 100.965 172.196 100.219 172.024 99.1279Z" fill="black" fill-opacity="0.6"/>
<mask id="mask2" mask-type="alpha" maskUnits="userSpaceOnUse" x="0" y="0" width="264" height="280">
<rect width="264" height="280" fill="white"/>
</mask>
<g mask="url(#mask2)">
<path fill-rule="evenodd" clip-rule="evenodd" d="M198 110C198 109.432 197.96 108.872 197.884 108.325C176.364 96.7374 157.89 80.1443 145.846 61.3024C134.276 77.6963 115.274 85.4883 96.4593 93.204C85.8691 97.5468 75.3379 101.865 66.2241 107.68C66.0771 108.431 66 109.206 66 110V123C66 129.019 70.4309 134.002 76.2086 134.867C77.9518 155.115 90.4692 172.283 108 180.611V199H104C64.2355 199 32 231.236 32 271V280H31.0053C3.10384 264.068 18.264 241.174 28.7939 225.273C32.7708 219.267 36.0872 214.259 36.1741 211C36.3179 206.383 33.0329 203.164 29.01 199.223C22.8005 193.139 14.8327 185.332 15.0027 168C15.5164 152.166 24.8029 145.747 33.1115 140.005C37.1165 137.237 40.8942 134.626 43.3526 131.193C45.1441 128.691 46.2351 125.753 46.2027 122C46.2578 115.799 45.0639 110.787 43.8263 105.591C41.2717 94.8662 38.5308 83.3592 46.2027 59C57.8396 22.5393 87.9166 13.7682 131.003 13.016V13C131.17 13.0024 131.336 13.005 131.503 13.0076C131.669 13.005 131.836 13.0024 132.003 13V13.016C175.089 13.7682 205.166 22.5393 216.803 59C224.474 83.3592 221.734 94.8662 219.179 105.591C218.498 108.451 217.83 111.255 217.376 114.233C217.005 116.665 216.778 119.212 216.803 122C216.726 130.904 222.97 135.22 229.894 140.005C238.202 145.747 247.489 152.166 248.003 168C248.173 185.332 240.205 193.139 233.995 199.223C229.972 203.164 226.687 206.383 226.831 211C226.842 211.407 226.903 211.842 227.01 212.303C227.757 215.527 230.731 220.018 234.211 225.273L234.211 225.273L234.211 225.273C235.528 227.261 236.916 229.358 238.284 231.537C247.859 246.789 256.414 266.06 232 280L232 271C232 231.236 199.764 199 160 199H156V180.611C173.531 172.283 186.048 155.115 187.791 134.867C193.569 134.002 198 129.019 198 123V110Z" fill="#314756"/>
<mask id="mask3" mask-type="alpha" maskUnits="userSpaceOnUse" x="15" y="13" width="234" height="267">
<path fill-rule="evenodd" clip-rule="evenodd" d="M198 110C198 109.432 197.96 108.872 197.884 108.325C176.364 96.7374 157.89 80.1443 145.846 61.3024C134.276 77.6963 115.274 85.4883 96.4593 93.204C85.8691 97.5468 75.3379 101.865 66.2241 107.68C66.0771 108.431 66 109.206 66 110V123C66 129.019 70.4309 134.002 76.2086 134.867C77.9518 155.115 90.4692 172.283 108 180.611V199H104C64.2355 199 32 231.236 32 271V280H31.0053C3.10384 264.068 18.264 241.174 28.7939 225.273C32.7708 219.267 36.0872 214.259 36.1741 211C36.3179 206.383 33.0329 203.164 29.01 199.223C22.8005 193.139 14.8327 185.332 15.0027 168C15.5164 152.166 24.8029 145.747 33.1115 140.005C37.1165 137.237 40.8942 134.626 43.3526 131.193C45.1441 128.691 46.2351 125.753 46.2027 122C46.2578 115.799 45.0639 110.787 43.8263 105.591C41.2717 94.8662 38.5308 83.3592 46.2027 59C57.8396 22.5393 87.9166 13.7682 131.003 13.016V13C131.17 13.0024 131.336 13.005 131.503 13.0076C131.669 13.005 131.836 13.0024 132.003 13V13.016C175.089 13.7682 205.166 22.5393 216.803 59C224.474 83.3592 221.734 94.8662 219.179 105.591C218.498 108.451 217.83 111.255 217.376 114.233C217.005 116.665 216.778 119.212 216.803 122C216.726 130.904 222.97 135.22 229.894 140.005C238.202 145.747 247.489 152.166 248.003 168C248.173 185.332 240.205 193.139 233.995 199.223C229.972 203.164 226.687 206.383 226.831 211C226.842 211.407 226.903 211.842 227.01 212.303C227.757 215.527 230.731 220.018 234.211 225.273L234.211 225.273L234.211 225.273C235.528 227.261 236.916 229.358 238.284 231.537C247.859 246.789 256.414 266.06 232 280L232 271C232 231.236 199.764 199 160 199H156V180.611C173.531 172.283 186.048 155.115 187.791 134.867C193.569 134.002 198 129.019 198 123V110Z" fill="white"/>
</mask>
<g mask="url(#mask3)">
<rect width="264" height="280" fill="#4A312C"/>
</g>
<mask id="mask4" mask-type="alpha" maskUnits="userSpaceOnUse" x="15" y="13" width="234" height="267">
<path fill-rule="evenodd" clip-rule="evenodd" d="M217.376 114.233C217.83 111.255 218.498 108.451 219.179 105.591C221.734 94.8662 224.474 83.3592 216.803 59C205.166 22.5393 175.089 13.7682 132.003 13.016V13C131.836 13.0024 131.669 13.005 131.503 13.0076C131.336 13.005 131.17 13.0024 131.003 13V13.016C87.9166 13.7682 57.8396 22.5393 46.2027 59C38.5308 83.3592 41.2717 94.8662 43.8263 105.591C45.0639 110.787 46.2578 115.799 46.2027 122C46.2351 125.753 45.1441 128.691 43.3526 131.193C40.8942 134.626 37.1165 137.237 33.1115 140.005C24.8029 145.747 15.5164 152.166 15.0027 168C14.8327 185.332 22.8005 193.139 29.01 199.223C33.0329 203.164 36.3179 206.383 36.1741 211C36.0872 214.259 32.7708 219.267 28.7939 225.273C18.264 241.174 3.10384 264.068 31.0053 280H32V271C32 231.236 64.2355 199 104 199H108V153H156V199H160C199.764 199 232 231.236 232 271L232 280C256.414 266.06 247.859 246.789 238.284 231.537C236.916 229.358 235.528 227.261 234.211 225.273L234.211 225.273L234.211 225.273C230.731 220.018 227.757 215.527 227.01 212.303C226.903 211.842 226.842 211.407 226.831 211C226.687 206.383 229.972 203.164 233.995 199.223C240.205 193.139 248.173 185.332 248.003 168C247.489 152.166 238.202 145.747 229.894 140.005C222.97 135.22 216.726 130.904 216.803 122C216.778 119.212 217.005 116.665 217.376 114.233Z" fill="white"/>
</mask>
<g mask="url(#mask4)">
<path fill-rule="evenodd" clip-rule="evenodd" d="M96.4593 93.204C78.5233 100.559 60.7567 107.845 49.7585 122.446C49.4281 122.885 49.0607 123.392 48.6737 123.936C60.2542 111.942 77.4874 105.501 94.8728 99.0033C114.54 91.6529 134.401 84.2298 146.495 68.6119C162.59 91.5596 190.207 111.145 220.88 121.603C221.04 121.191 221.059 120.744 221.079 120.298C221.097 119.865 221.116 119.433 221.264 119.036C221.738 116.2 222.436 113.528 223.148 110.804C225.819 100.587 228.684 89.6246 220.664 66.4186C219.996 64.509 218.898 62.7045 217.419 61.0049C224.322 83.9993 221.662 95.1647 219.179 105.591C218.498 108.451 217.83 111.255 217.376 114.233C217.235 114.649 217.217 115.102 217.199 115.557C217.18 116.025 217.162 116.494 217.009 116.927C187.664 105.95 161.244 85.3904 145.846 61.3024C134.276 77.6963 115.274 85.4883 96.4593 93.204ZM45.0989 128.057C45.8223 126.285 46.2225 124.295 46.2027 122C46.2578 115.799 45.0639 110.787 43.8263 105.591C41.3428 95.1647 38.6833 83.9993 45.5859 61.0049C44.107 62.7045 43.0096 64.509 42.3409 66.4186C34.3218 89.6246 37.1868 100.587 39.857 110.804C41.1506 115.754 42.3986 120.529 42.3409 126.436C42.3748 130.012 41.2345 132.811 39.3618 135.194C39.4795 135.429 41.0864 133.312 42.8546 130.983C43.6076 129.991 44.3899 128.961 45.0989 128.057Z" fill="black" fill-opacity="0.16"/>
</g>
<path fill-rule="evenodd" clip-rule="evenodd" d="M49.7585 122.446C72.2941 92.5274 123.247 93.3241 145.846 61.3024C161.244 85.3904 187.664 105.95 217.009 116.927C217.31 116.073 217.09 115.077 217.376 114.233C219.531 100.089 226.52 89.8552 216.803 59C205.166 22.5393 175.089 13.7682 132.003 13.016C131.336 13.005 131.17 13.0024 131.003 13C87.9166 13.7682 57.8396 22.5393 46.2027 59C34.814 95.1607 46.3717 102.999 46.2027 122C46.2351 125.753 45.1442 128.691 43.3526 131.193C43.5361 131.595 47.5062 125.437 49.7585 122.446Z" fill="white" fill-opacity="0.1"/>
</g>
</svg>
