<svg width="264" height="280" viewBox="0 0 264 280" fill="none" xmlns="http://www.w3.org/2000/svg">
<path fill-rule="evenodd" clip-rule="evenodd" d="M132 36C101.072 36 76 61.0721 76 92V98.1659C70.3246 99.1181 66 104.054 66 110V124C66 130.052 70.4803 135.058 76.3051 135.881C78.3722 155.687 90.7626 172.422 108 180.611V199H104C64.2355 199 32 231.236 32 271V280H232V271C232 231.236 199.764 199 160 199H156V180.611C173.237 172.422 185.628 155.687 187.695 135.881C193.52 135.058 198 130.052 198 124V110C198 104.054 193.675 99.1181 188 98.1659V92C188 61.0721 162.928 36 132 36Z" fill="#D0C6AC"/>
<mask id="mask0" mask-type="alpha" maskUnits="userSpaceOnUse" x="32" y="36" width="200" height="244">
<path fill-rule="evenodd" clip-rule="evenodd" d="M132 36C101.072 36 76 61.0721 76 92V98.1659C70.3246 99.1181 66 104.054 66 110V124C66 130.052 70.4803 135.058 76.3051 135.881C78.3722 155.687 90.7626 172.422 108 180.611V199H104C64.2355 199 32 231.236 32 271V280H232V271C232 231.236 199.764 199 160 199H156V180.611C173.237 172.422 185.628 155.687 187.695 135.881C193.52 135.058 198 130.052 198 124V110C198 104.054 193.675 99.1181 188 98.1659V92C188 61.0721 162.928 36 132 36Z" fill="white"/>
</mask>
<g mask="url(#mask0)">
<rect y="36" width="264" height="244" fill="#AE5D29"/>
<path fill-rule="evenodd" clip-rule="evenodd" d="M76 130V138C76 168.928 101.072 194 132 194C162.928 194 188 168.928 188 138V130C188 160.928 162.928 186 132 186C101.072 186 76 160.928 76 130Z" fill="black" fill-opacity="0.1"/>
</g>
<path fill-rule="evenodd" clip-rule="evenodd" d="M108 183.071C90.0813 185.076 76.2798 190.552 76.0042 204.645C50.1464 215.568 32 241.165 32 271V280H232V271C232 241.165 213.854 215.568 187.996 204.645C187.72 190.552 173.919 185.076 156 183.071V202C156 215.255 145.255 226 132 226C118.745 226 108 215.255 108 202V183.071Z" fill="#B7C1DB"/>
<mask id="mask1" mask-type="alpha" maskUnits="userSpaceOnUse" x="32" y="183" width="200" height="97">
<path fill-rule="evenodd" clip-rule="evenodd" d="M108 183.071C90.0813 185.076 76.2798 190.552 76.0042 204.645C50.1464 215.568 32 241.165 32 271V280H232V271C232 241.165 213.854 215.568 187.996 204.645C187.72 190.552 173.919 185.076 156 183.071V202C156 215.255 145.255 226 132 226C118.745 226 108 215.255 108 202V183.071Z" fill="white"/>
</mask>
<g mask="url(#mask1)">
<rect y="170" width="264" height="110" fill="#65C9FF"/>
<path fill-rule="evenodd" clip-rule="evenodd" d="M95 228.15C97.2038 229.46 99.5468 230.661 102 231.739V280H95V228.15ZM169 228.15C166.796 229.46 164.453 230.661 162 231.739V268.5C162 270.433 163.567 272 165.5 272C167.433 272 169 270.433 169 268.5V228.15Z" fill="#F4F4F4"/>
<path fill-rule="evenodd" clip-rule="evenodd" d="M188 201.077C188 221.469 160.179 238 132 238C103.821 238 76 221.469 76 201.077C76 191.706 81.8751 186.074 90.9601 182.724C75.9093 185.571 65.5 191.243 65.5 202.308C65.5 222.02 98.5377 238 132 238C165.462 238 198.5 222.02 198.5 202.308C198.5 191.243 188.091 185.571 173.04 182.724C182.125 186.074 188 191.706 188 201.077Z" fill="black" fill-opacity="0.16"/>
</g>
<path d="M118 150C118 155.372 124.158 159 132 159C139.842 159 146 155.372 146 150C146 148.895 145.05 148 144 148C142.707 148 142.13 148.905 142 150C140.758 152.938 137.683 154.716 132 155C126.317 154.716 123.242 152.938 122 150C121.87 148.905 121.293 148 120 148C118.95 148 118 148.895 118 150Z" fill="black" fill-opacity="0.6"/>
<path fill-rule="evenodd" clip-rule="evenodd" d="M120 130C120 134.418 125.373 138 132 138V138C138.627 138 144 134.418 144 130" fill="black" fill-opacity="0.16"/>
<path fill-rule="evenodd" clip-rule="evenodd" d="M92.1602 117.553C94.0067 121.351 98.1644 124 102.998 124C107.814 124 111.959 121.37 113.815 117.593C114.367 116.471 113.582 115.553 112.791 116.233C110.34 118.34 106.859 119.656 102.998 119.656C99.2572 119.656 95.8738 118.421 93.4375 116.428C92.5468 115.7 91.6201 116.442 92.1602 117.553Z" fill="black" fill-opacity="0.6"/>
<path fill-rule="evenodd" clip-rule="evenodd" d="M150.16 117.553C152.007 121.351 156.164 124 160.998 124C165.814 124 169.959 121.37 171.815 117.593C172.367 116.471 171.582 115.553 170.791 116.233C168.34 118.34 164.859 119.656 160.998 119.656C157.257 119.656 153.874 118.421 151.438 116.428C150.547 115.7 149.62 116.442 150.16 117.553Z" fill="black" fill-opacity="0.6"/>
<path d="M91.6302 99.1586C95.5451 93.6499 106.278 90.5608 115.523 92.8312C116.596 93.0946 117.679 92.4386 117.942 91.3659C118.206 90.2932 117.55 89.21 116.477 88.9466C105.74 86.31 93.3121 89.887 88.3697 96.8414C87.7299 97.7418 87.941 98.9904 88.8414 99.6302C89.7418 100.27 90.9904 100.059 91.6302 99.1586Z" fill="black" fill-opacity="0.6"/>
<path d="M172.37 99.1586C168.455 93.6499 157.722 90.5608 148.477 92.8312C147.405 93.0946 146.321 92.4386 146.058 91.3659C145.795 90.2932 146.451 89.21 147.523 88.9466C158.26 86.31 170.688 89.887 175.631 96.8414C176.27 97.7418 176.059 98.9904 175.159 99.6302C174.258 100.27 173.01 100.059 172.37 99.1586Z" fill="black" fill-opacity="0.6"/>
<mask id="mask2" mask-type="alpha" maskUnits="userSpaceOnUse" x="0" y="0" width="264" height="280">
<rect width="264" height="280" fill="white"/>
</mask>
<g mask="url(#mask2)">
<path fill-rule="evenodd" clip-rule="evenodd" d="M249 70.5C249 71.2993 248.967 72.0909 248.903 72.8735C255.882 82.4492 260 94.2437 260 107C260 114.157 258.704 121.012 256.333 127.341C256.77 129.325 257 131.385 257 133.5C257 143.288 252.066 151.924 244.549 157.055C235.837 174.792 217.594 187 196.5 187C194.537 187 192.598 186.894 190.69 186.688C184.384 191.881 176.306 195 167.5 195C163.482 195 159.616 194.351 156 193.151V180.611C173.531 172.283 186.048 155.115 187.791 134.867C193.569 134.002 198 129.019 198 123V110C198 104.054 193.675 99.1181 188 98.1659V92C188 86.5586 187.224 81.2984 185.776 76.3242L187.153 89.1947L175.813 65.1946L130.677 45.6707L100.563 56.2284L79.0648 76.4194L79.0203 73.8104C77.0627 79.5136 76 85.6327 76 92V98.1659C70.3246 99.1181 66 104.054 66 110V123C66 129.019 70.4309 134.002 76.2086 134.867C77.9518 155.115 90.4692 172.283 108 180.611V191.555C103.295 193.765 98.0419 195 92.5 195C83.6937 195 75.6157 191.881 69.3104 186.688C67.4019 186.894 65.4633 187 63.5 187C42.4056 187 24.1626 174.792 15.4511 157.055C7.93428 151.924 3 143.288 3 133.5C3 131.385 3.2303 129.325 3.66717 127.341C1.29639 121.012 0 114.157 0 107C0 94.2437 4.11812 82.4492 11.0974 72.8735C11.0329 72.0909 11 71.2993 11 70.5C11 59.2025 17.5735 49.4403 27.1043 44.8296C35.5367 26.7017 53.5577 13.9359 74.6501 13.0493C79.7819 8.06731 86.7827 5 94.5 5C96.827 5 99.0888 5.27888 101.254 5.80503C110.776 2.058 121.148 0 132 0C142.346 0 152.255 1.87044 161.408 5.29161C162.744 5.09945 164.11 5 165.5 5C173.217 5 180.218 8.06731 185.35 13.0493C206.442 13.9359 224.463 26.7017 232.896 44.8296C242.427 49.4403 249 59.2025 249 70.5Z" fill="#314756"/>
<mask id="mask3" mask-type="alpha" maskUnits="userSpaceOnUse" x="0" y="0" width="260" height="195">
<path fill-rule="evenodd" clip-rule="evenodd" d="M249 70.5C249 71.2993 248.967 72.0909 248.903 72.8735C255.882 82.4492 260 94.2437 260 107C260 114.157 258.704 121.012 256.333 127.341C256.77 129.325 257 131.385 257 133.5C257 143.288 252.066 151.924 244.549 157.055C235.837 174.792 217.594 187 196.5 187C194.537 187 192.598 186.894 190.69 186.688C184.384 191.881 176.306 195 167.5 195C163.482 195 159.616 194.351 156 193.151V180.611C173.531 172.283 186.048 155.115 187.791 134.867C193.569 134.002 198 129.019 198 123V110C198 104.054 193.675 99.1181 188 98.1659V92C188 86.5586 187.224 81.2984 185.776 76.3242L187.153 89.1947L175.813 65.1946L130.677 45.6707L100.563 56.2284L79.0648 76.4194L79.0203 73.8104C77.0627 79.5136 76 85.6327 76 92V98.1659C70.3246 99.1181 66 104.054 66 110V123C66 129.019 70.4309 134.002 76.2086 134.867C77.9518 155.115 90.4692 172.283 108 180.611V191.555C103.295 193.765 98.0419 195 92.5 195C83.6937 195 75.6157 191.881 69.3104 186.688C67.4019 186.894 65.4633 187 63.5 187C42.4056 187 24.1626 174.792 15.4511 157.055C7.93428 151.924 3 143.288 3 133.5C3 131.385 3.2303 129.325 3.66717 127.341C1.29639 121.012 0 114.157 0 107C0 94.2437 4.11812 82.4492 11.0974 72.8735C11.0329 72.0909 11 71.2993 11 70.5C11 59.2025 17.5735 49.4403 27.1043 44.8296C35.5367 26.7017 53.5577 13.9359 74.6501 13.0493C79.7819 8.06731 86.7827 5 94.5 5C96.827 5 99.0888 5.27888 101.254 5.80503C110.776 2.058 121.148 0 132 0C142.346 0 152.255 1.87044 161.408 5.29161C162.744 5.09945 164.11 5 165.5 5C173.217 5 180.218 8.06731 185.35 13.0493C206.442 13.9359 224.463 26.7017 232.896 44.8296C242.427 49.4403 249 59.2025 249 70.5Z" fill="white"/>
</mask>
<g mask="url(#mask3)">
<rect width="264" height="280" fill="#2C1B18"/>
</g>
<path fill-rule="evenodd" clip-rule="evenodd" d="M75.6314 98.975C79.7204 73.8832 103.176 54.6457 131.5 54.6457C159.824 54.6457 183.28 73.8832 187.369 98.975C187.784 96.4232 188 93.8109 188 91.1522C188 62.3493 162.704 39 131.5 39C100.296 39 75 62.3493 75 91.1522C75 93.8109 75.2155 96.4232 75.6314 98.975Z" fill="#92D9FF"/>
<g filter="url(#filter0_d)">
<path fill-rule="evenodd" clip-rule="evenodd" d="M101 136C87.7452 136 77 125.255 77 112C77 109.565 77.3626 107.215 78.0369 105H71.5C70.1193 105 69 103.881 69 102.5C69 101.119 70.1193 100 71.5 100H79.5C79.7285 100 79.9498 100.031 80.1601 100.088C84.2971 92.8659 92.0803 88 101 88C110.352 88 118.455 93.3492 122.416 101.155C124.493 98.0393 127.949 96 131.862 96C135.875 96 139.407 98.1441 141.465 101.394C145.38 93.4587 153.553 88 163 88C171.92 88 179.703 92.8659 183.84 100.088C184.05 100.031 184.272 100 184.5 100H192.5C193.881 100 195 101.119 195 102.5C195 103.881 193.881 105 192.5 105H185.963C186.637 107.215 187 109.565 187 112C187 125.255 176.255 136 163 136C149.745 136 139 125.255 139 112C139 110.578 139.124 109.185 139.361 107.831C139.276 103.455 135.914 100 131.862 100C128.126 100 124.975 102.94 124.442 106.83C124.807 108.495 125 110.225 125 112C125 125.255 114.255 136 101 136ZM101 132C112.046 132 121 123.046 121 112C121 100.954 112.046 92 101 92C89.9543 92 81 100.954 81 112C81 123.046 89.9543 132 101 132ZM183 112C183 123.046 174.046 132 163 132C151.954 132 143 123.046 143 112C143 100.954 151.954 92 163 92C174.046 92 183 100.954 183 112Z" fill="#252C2F"/>
</g>
</g>
<defs>
<filter id="filter0_d" x="69" y="88" width="126" height="50" filterUnits="userSpaceOnUse" color-interpolation-filters="sRGB">
<feFlood flood-opacity="0" result="BackgroundImageFix"/>
<feColorMatrix in="SourceAlpha" type="matrix" values="0 0 0 0 0 0 0 0 0 0 0 0 0 0 0 0 0 0 127 0"/>
<feOffset dy="2"/>
<feColorMatrix type="matrix" values="0 0 0 0 0 0 0 0 0 0 0 0 0 0 0 0 0 0 0.1 0"/>
<feBlend mode="normal" in2="BackgroundImageFix" result="effect1_dropShadow"/>
<feBlend mode="normal" in="SourceGraphic" in2="effect1_dropShadow" result="shape"/>
</filter>
</defs>
</svg>
