<svg width="264" height="280" viewBox="0 0 264 280" fill="none" xmlns="http://www.w3.org/2000/svg">
<path fill-rule="evenodd" clip-rule="evenodd" d="M132 36C101.072 36 76 61.0721 76 92V98.1659C70.3246 99.1181 66 104.054 66 110V124C66 130.052 70.4803 135.058 76.3051 135.881C78.3722 155.687 90.7626 172.422 108 180.611V199H104C64.2355 199 32 231.236 32 271V280H232V271C232 231.236 199.764 199 160 199H156V180.611C173.237 172.422 185.628 155.687 187.695 135.881C193.52 135.058 198 130.052 198 124V110C198 104.054 193.675 99.1181 188 98.1659V92C188 61.0721 162.928 36 132 36Z" fill="#D0C6AC"/>
<mask id="mask0" mask-type="alpha" maskUnits="userSpaceOnUse" x="32" y="36" width="200" height="244">
<path fill-rule="evenodd" clip-rule="evenodd" d="M132 36C101.072 36 76 61.0721 76 92V98.1659C70.3246 99.1181 66 104.054 66 110V124C66 130.052 70.4803 135.058 76.3051 135.881C78.3722 155.687 90.7626 172.422 108 180.611V199H104C64.2355 199 32 231.236 32 271V280H232V271C232 231.236 199.764 199 160 199H156V180.611C173.237 172.422 185.628 155.687 187.695 135.881C193.52 135.058 198 130.052 198 124V110C198 104.054 193.675 99.1181 188 98.1659V92C188 61.0721 162.928 36 132 36Z" fill="white"/>
</mask>
<g mask="url(#mask0)">
<rect y="36" width="264" height="244" fill="#AE5D29"/>
<path fill-rule="evenodd" clip-rule="evenodd" d="M76 130V138C76 168.928 101.072 194 132 194C162.928 194 188 168.928 188 138V130C188 160.928 162.928 186 132 186C101.072 186 76 160.928 76 130Z" fill="black" fill-opacity="0.1"/>
</g>
<path fill-rule="evenodd" clip-rule="evenodd" d="M166 200.348C166 212.211 151.002 221.828 132.5 221.828C113.998 221.828 99 212.211 99 200.348C99 199.969 99.0153 199.593 99.0454 199.219C61.592 201.765 32 232.953 32 271.052V280H232V271.052C232 233.294 202.936 202.325 165.96 199.295C165.987 199.644 166 199.995 166 200.348Z" fill="#E6E6E6"/>
<mask id="mask1" mask-type="alpha" maskUnits="userSpaceOnUse" x="32" y="199" width="200" height="81">
<path fill-rule="evenodd" clip-rule="evenodd" d="M166 200.348C166 212.211 151.002 221.828 132.5 221.828C113.998 221.828 99 212.211 99 200.348C99 199.969 99.0153 199.593 99.0454 199.219C61.592 201.765 32 232.953 32 271.052V280H232V271.052C232 233.294 202.936 202.325 165.96 199.295C165.987 199.644 166 199.995 166 200.348Z" fill="white"/>
</mask>
<g mask="url(#mask1)">
<rect y="170" width="264" height="110" fill="#262E33"/>
<g opacity="0.6">
<path fill-rule="evenodd" clip-rule="evenodd" d="M132.5 228.761C154.39 228.761 172.135 216.712 172.135 201.848C172.135 186.983 154.39 174.934 132.5 174.934C110.61 174.934 92.8649 186.983 92.8649 201.848C92.8649 216.712 110.61 228.761 132.5 228.761Z" fill="black" fill-opacity="0.16"/>
</g>
</g>
<path fill-rule="evenodd" clip-rule="evenodd" d="M163.638 280H232V271.052C232 232.707 202.025 201.363 164.229 199.174C167.265 210.771 169 224.194 169 238.5C169 253.709 167.039 267.92 163.638 280ZM100.785 199.122C97.74 210.731 96 224.173 96 238.5C96 253.709 97.9607 267.92 101.362 280H32V271.052C32 232.365 62.5123 200.804 100.785 199.122Z" fill="#3A4C5A"/>
<path fill-rule="evenodd" clip-rule="evenodd" d="M181 256L190.556 248.833C191.999 247.751 193.988 247.768 195.412 248.876L202 254L181 256Z" fill="#E6E6E6"/>
<path fill-rule="evenodd" clip-rule="evenodd" d="M101 198C95 227 106 280 106 280H90L76 244L82 235L76 229L95 199C95 199 98.0415 198.054 101 198Z" fill="#2F4351"/>
<path fill-rule="evenodd" clip-rule="evenodd" d="M163 198C169 227 158 280 158 280H174L188 244L182 235L188 229L169 199C169 199 165.959 198.054 163 198Z" fill="#2F4351"/>
<path fill-rule="evenodd" clip-rule="evenodd" d="M113.118 149.128C114.176 158.62 122.226 166 132 166C141.804 166 149.874 158.574 150.892 149.04C150.974 148.273 150.117 147 149.043 147C134.149 147 122.738 147 115.087 147C114.007 147 113.012 148.178 113.118 149.128Z" fill="black" fill-opacity="0.7"/>
<mask id="mask2" mask-type="alpha" maskUnits="userSpaceOnUse" x="113" y="147" width="38" height="19">
<path fill-rule="evenodd" clip-rule="evenodd" d="M113.118 149.128C114.176 158.62 122.226 166 132 166C141.804 166 149.874 158.574 150.892 149.04C150.974 148.273 150.117 147 149.043 147C134.149 147 122.738 147 115.087 147C114.007 147 113.012 148.178 113.118 149.128Z" fill="white"/>
</mask>
<g mask="url(#mask2)">
<rect x="117" y="136" width="31" height="16" rx="5" fill="white"/>
<path fill-rule="evenodd" clip-rule="evenodd" d="M127 180C133.075 180 138 175.075 138 169C138 162.925 133.075 158 127 158C120.925 158 116 162.925 116 169C116 175.075 120.925 180 127 180Z" fill="#FF4F6D"/>
<path fill-rule="evenodd" clip-rule="evenodd" d="M137 180C143.075 180 148 175.075 148 169C148 162.925 143.075 158 137 158C130.925 158 126 162.925 126 169C126 175.075 130.925 180 137 180Z" fill="#FF4F6D"/>
</g>
<path fill-rule="evenodd" clip-rule="evenodd" d="M120 130C120 134.418 125.373 138 132 138V138C138.627 138 144 134.418 144 130" fill="black" fill-opacity="0.16"/>
<path fill-rule="evenodd" clip-rule="evenodd" d="M92.1602 112.447C94.0067 108.649 98.1644 106 102.998 106C107.814 106 111.959 108.63 113.815 112.407C114.367 113.529 113.582 114.447 112.791 113.767C110.34 111.66 106.859 110.344 102.998 110.344C99.2572 110.344 95.8738 111.579 93.4375 113.572C92.5468 114.3 91.6201 113.558 92.1602 112.447Z" fill="black" fill-opacity="0.6"/>
<path fill-rule="evenodd" clip-rule="evenodd" d="M150.16 112.447C152.007 108.649 156.164 106 160.998 106C165.814 106 169.959 108.63 171.815 112.407C172.367 113.529 171.582 114.447 170.791 113.767C168.34 111.66 164.859 110.344 160.998 110.344C157.257 110.344 153.874 111.579 151.438 113.572C150.547 114.3 149.62 113.558 150.16 112.447Z" fill="black" fill-opacity="0.6"/>
<path d="M91.6303 99.1586C95.5452 93.6499 106.278 90.5608 115.523 92.8312C116.596 93.0946 117.679 92.4386 117.942 91.3659C118.206 90.2932 117.55 89.21 116.477 88.9466C105.74 86.31 93.3121 89.887 88.3698 96.8414C87.7299 97.7418 87.9411 98.9904 88.8414 99.6303C89.7418 100.27 90.9904 100.059 91.6303 99.1586Z" fill="black" fill-opacity="0.6"/>
<path d="M172.37 99.1586C168.455 93.6499 157.722 90.5608 148.477 92.8312C147.405 93.0946 146.321 92.4386 146.058 91.3659C145.795 90.2932 146.451 89.21 147.523 88.9466C158.26 86.31 170.688 89.887 175.631 96.8414C176.27 97.7418 176.059 98.9904 175.159 99.6303C174.259 100.27 173.01 100.059 172.37 99.1586Z" fill="black" fill-opacity="0.6"/>
<mask id="mask3" mask-type="alpha" maskUnits="userSpaceOnUse" x="0" y="0" width="264" height="280">
<rect width="264" height="280" fill="white"/>
</mask>
<g mask="url(#mask3)">
<path fill-rule="evenodd" clip-rule="evenodd" d="M186.709 56.124C187.601 59.371 188.872 68.074 186.637 70.9566C185.891 71.9188 180.796 69.2177 178.671 68.044C177.428 67.3574 176.256 66.7034 175.139 66.0809C160.224 57.7646 155.404 55.0772 129.246 55.4578C101.13 55.867 81.8675 69.04 80.784 70.3874C80.0302 71.3249 79.0678 73.8279 78.2764 80.8005C78.0259 83.0078 77.9559 85.7694 77.8864 88.5127C77.7363 94.4354 77.5884 100.273 75.6305 100.263C73.1915 100.25 72.6609 76.477 73.7137 67.0464C73.7531 66.6937 73.8199 66.2732 73.8918 65.8201C74.1152 64.413 74.3885 62.6911 74.0474 61.7059C73.8937 61.2623 73.5068 60.992 73.1102 60.7149C72.4897 60.2815 71.8454 59.8314 72.0331 58.6751C72.2447 57.3696 73.1246 57.2463 73.9966 57.124C74.5659 57.0442 75.1317 56.9649 75.506 56.5574C76.6341 55.3288 75.9591 54.6897 75.1881 53.9598C74.7326 53.5286 74.2436 53.0656 74.073 52.4307C73.4389 50.0693 75.0966 49.3361 76.7599 48.6002C76.8868 48.5441 77.0137 48.488 77.1397 48.4311C77.8267 48.121 78.2425 48.0145 78.5608 47.9329C79.1535 47.781 79.4081 47.7158 80.4463 46.5849C78.3148 45.0225 77.5436 42.8939 80.4624 41.752C81.0213 41.5333 81.9839 41.5437 82.9615 41.5543C84.152 41.5672 85.3648 41.5803 85.8981 41.1802C86.0463 41.0689 86.1421 40.6493 86.2274 40.2759C86.2877 40.0116 86.3428 39.7704 86.4075 39.678C87.7575 37.7466 87.6424 36.2794 87.4862 34.2887C87.4629 33.9926 87.4388 33.6849 87.4184 33.3624C87.289 31.3242 87.3064 29.4532 89.7467 29.2496C90.7515 29.1658 91.6405 29.6403 92.5169 30.108C93.0607 30.3983 93.5996 30.6859 94.1582 30.8359C95.0329 31.0708 95.2574 31.2714 95.4791 31.2684C95.6676 31.2659 95.8541 31.1161 96.4369 30.715C97.6242 29.8973 97.7473 28.6659 97.8715 27.4244C97.9801 26.338 98.0895 25.2438 98.9133 24.412C100.489 22.8214 101.711 23.7815 102.909 24.7218C103.552 25.2274 104.189 25.7272 104.869 25.8218C107.415 26.1765 107.933 24.7587 108.491 23.2323C108.858 22.227 109.243 21.1745 110.236 20.5505C112.065 19.4015 112.883 20.5032 113.67 21.564C114.169 22.2358 114.655 22.8913 115.379 22.9483C116.383 23.027 117.885 21.8546 119.218 20.8148C120.032 20.1795 120.783 19.5937 121.317 19.3731C123.586 18.437 125.234 19.4373 126.902 20.45C128.31 21.3046 129.732 22.168 131.554 21.8845C131.852 21.8381 132.127 21.7926 132.385 21.7502C134.623 21.3805 135.492 21.2371 137.831 22.7115C139.521 23.777 140.351 23.6223 141.569 23.3951C142.175 23.2821 142.877 23.1512 143.829 23.1436C144.94 23.1353 145.815 23.6407 146.658 24.1279C147.351 24.5287 148.023 24.9171 148.788 24.9967C149.211 25.041 149.625 24.8423 150.047 24.6399C150.467 24.4382 150.895 24.2328 151.348 24.2604C153.175 24.3712 154.036 25.7535 154.902 27.1438C155.57 28.2163 156.241 29.2936 157.362 29.7956C158.981 30.5216 160.798 30.044 162.533 29.5876C163.316 29.3818 164.082 29.1804 164.807 29.0953C168.766 28.6306 168.084 31.0631 167.356 33.6545C167.038 34.7871 166.712 35.95 166.761 36.9147C167.909 37.1826 169.066 36.762 170.221 36.342C171.313 35.9448 172.404 35.5482 173.485 35.7347C176.883 36.3214 175.739 39.7563 174.927 42.1946C174.902 42.2689 174.877 42.3422 174.853 42.4145C175.488 42.403 176.391 42.2102 177.405 41.9934C180.268 41.3816 184.024 40.5789 185.185 43.122C185.664 44.173 185.199 45.4323 184.745 46.6594C184.432 47.506 184.125 48.3373 184.138 49.0744C184.164 50.6012 184.848 51.9697 185.534 53.3406C185.989 54.2516 186.446 55.1637 186.709 56.124ZM185.361 73.6076C185.615 73.7843 185.788 73.9042 185.832 73.9288C187.589 74.9174 188.98 84.8279 189.048 88.6177C189.09 90.9562 189.127 99.874 186.654 99.1031C185.901 98.8684 184.752 94.1472 184.588 91.3841C184.425 88.6209 182.855 79.22 180.447 74.8947C180.315 74.6585 180.125 74.3795 179.921 74.0804C179.272 73.1281 178.484 71.971 179.002 71.3348C179.724 70.4484 180.428 70.7596 181.261 71.128C181.403 71.1904 181.548 71.2545 181.697 71.3147C182.565 71.6646 184.468 72.9866 185.361 73.6076Z" fill="#2E3257"/>
<mask id="mask4" mask-type="alpha" maskUnits="userSpaceOnUse" x="72" y="19" width="118" height="82">
<path fill-rule="evenodd" clip-rule="evenodd" d="M186.709 56.124C187.601 59.371 188.872 68.074 186.637 70.9566C185.891 71.9188 180.796 69.2177 178.671 68.044C177.428 67.3574 176.256 66.7034 175.139 66.0809C160.224 57.7646 155.404 55.0772 129.246 55.4578C101.13 55.867 81.8675 69.04 80.784 70.3874C80.0302 71.3249 79.0678 73.8279 78.2764 80.8005C78.0259 83.0078 77.9559 85.7694 77.8864 88.5127C77.7363 94.4354 77.5884 100.273 75.6305 100.263C73.1915 100.25 72.6609 76.477 73.7137 67.0464C73.7531 66.6937 73.8199 66.2732 73.8918 65.8201C74.1152 64.413 74.3885 62.6911 74.0474 61.7059C73.8937 61.2623 73.5068 60.992 73.1102 60.7149C72.4897 60.2815 71.8454 59.8314 72.0331 58.6751C72.2447 57.3696 73.1246 57.2463 73.9966 57.124C74.5659 57.0442 75.1317 56.9649 75.506 56.5574C76.6341 55.3288 75.9591 54.6897 75.1881 53.9598C74.7326 53.5286 74.2436 53.0656 74.073 52.4307C73.4389 50.0693 75.0966 49.3361 76.7599 48.6002C76.8868 48.5441 77.0137 48.488 77.1397 48.4311C77.8267 48.121 78.2425 48.0145 78.5608 47.9329C79.1535 47.781 79.4081 47.7158 80.4463 46.5849C78.3148 45.0225 77.5436 42.8939 80.4624 41.752C81.0213 41.5333 81.9839 41.5437 82.9615 41.5543C84.152 41.5672 85.3648 41.5803 85.8981 41.1802C86.0463 41.0689 86.1421 40.6493 86.2274 40.2759C86.2877 40.0116 86.3428 39.7704 86.4075 39.678C87.7575 37.7466 87.6424 36.2794 87.4862 34.2887C87.4629 33.9926 87.4388 33.6849 87.4184 33.3624C87.289 31.3242 87.3064 29.4532 89.7467 29.2496C90.7515 29.1658 91.6405 29.6403 92.5169 30.108C93.0607 30.3983 93.5996 30.6859 94.1582 30.8359C95.0329 31.0708 95.2574 31.2714 95.4791 31.2684C95.6676 31.2659 95.8541 31.1161 96.4369 30.715C97.6242 29.8973 97.7473 28.6659 97.8715 27.4244C97.9801 26.338 98.0895 25.2438 98.9133 24.412C100.489 22.8214 101.711 23.7815 102.909 24.7218C103.552 25.2274 104.189 25.7272 104.869 25.8218C107.415 26.1765 107.933 24.7587 108.491 23.2323C108.858 22.227 109.243 21.1745 110.236 20.5505C112.065 19.4015 112.883 20.5032 113.67 21.564C114.169 22.2358 114.655 22.8913 115.379 22.9483C116.383 23.027 117.885 21.8546 119.218 20.8148C120.032 20.1795 120.783 19.5937 121.317 19.3731C123.586 18.437 125.234 19.4373 126.902 20.45C128.31 21.3046 129.732 22.168 131.554 21.8845C131.852 21.8381 132.127 21.7926 132.385 21.7502C134.623 21.3805 135.492 21.2371 137.831 22.7115C139.521 23.777 140.351 23.6223 141.569 23.3951C142.175 23.2821 142.877 23.1512 143.829 23.1436C144.94 23.1353 145.815 23.6407 146.658 24.1279C147.351 24.5287 148.023 24.9171 148.788 24.9967C149.211 25.041 149.625 24.8423 150.047 24.6399C150.467 24.4382 150.895 24.2328 151.348 24.2604C153.175 24.3712 154.036 25.7535 154.902 27.1438C155.57 28.2163 156.241 29.2936 157.362 29.7956C158.981 30.5216 160.798 30.044 162.533 29.5876C163.316 29.3818 164.082 29.1804 164.807 29.0953C168.766 28.6306 168.084 31.0631 167.356 33.6545C167.038 34.7871 166.712 35.95 166.761 36.9147C167.909 37.1826 169.066 36.762 170.221 36.342C171.313 35.9448 172.404 35.5482 173.485 35.7347C176.883 36.3214 175.739 39.7563 174.927 42.1946C174.902 42.2689 174.877 42.3422 174.853 42.4145C175.488 42.403 176.391 42.2102 177.405 41.9934C180.268 41.3816 184.024 40.5789 185.185 43.122C185.664 44.173 185.199 45.4323 184.745 46.6594C184.432 47.506 184.125 48.3373 184.138 49.0744C184.164 50.6012 184.848 51.9697 185.534 53.3406C185.989 54.2516 186.446 55.1637 186.709 56.124ZM185.361 73.6076C185.615 73.7843 185.788 73.9042 185.832 73.9288C187.589 74.9174 188.98 84.8279 189.048 88.6177C189.09 90.9562 189.127 99.874 186.654 99.1031C185.901 98.8684 184.752 94.1472 184.588 91.3841C184.425 88.6209 182.855 79.22 180.447 74.8947C180.315 74.6585 180.125 74.3795 179.921 74.0804C179.272 73.1281 178.484 71.971 179.002 71.3348C179.724 70.4484 180.428 70.7596 181.261 71.128C181.403 71.1904 181.548 71.2545 181.697 71.3147C182.565 71.6646 184.468 72.9866 185.361 73.6076Z" fill="white"/>
</mask>
<g mask="url(#mask4)">
<rect width="264" height="280" fill="#2C1B18"/>
</g>
</g>
</svg>
