<svg width="264" height="280" viewBox="0 0 264 280" fill="none" xmlns="http://www.w3.org/2000/svg">
<path fill-rule="evenodd" clip-rule="evenodd" d="M132 36C101.072 36 76 61.0721 76 92V98.1659C70.3246 99.1181 66 104.054 66 110V124C66 130.052 70.4803 135.058 76.3051 135.881C78.3722 155.687 90.7626 172.422 108 180.611V199H104C64.2355 199 32 231.236 32 271V280H232V271C232 231.236 199.764 199 160 199H156V180.611C173.237 172.422 185.628 155.687 187.695 135.881C193.52 135.058 198 130.052 198 124V110C198 104.054 193.675 99.1181 188 98.1659V92C188 61.0721 162.928 36 132 36Z" fill="#D0C6AC"/>
<mask id="mask0" mask-type="alpha" maskUnits="userSpaceOnUse" x="32" y="36" width="200" height="244">
<path fill-rule="evenodd" clip-rule="evenodd" d="M132 36C101.072 36 76 61.0721 76 92V98.1659C70.3246 99.1181 66 104.054 66 110V124C66 130.052 70.4803 135.058 76.3051 135.881C78.3722 155.687 90.7626 172.422 108 180.611V199H104C64.2355 199 32 231.236 32 271V280H232V271C232 231.236 199.764 199 160 199H156V180.611C173.237 172.422 185.628 155.687 187.695 135.881C193.52 135.058 198 130.052 198 124V110C198 104.054 193.675 99.1181 188 98.1659V92C188 61.0721 162.928 36 132 36Z" fill="white"/>
</mask>
<g mask="url(#mask0)">
<rect y="36" width="264" height="244" fill="#EDB98A"/>
<path fill-rule="evenodd" clip-rule="evenodd" d="M76 130V138C76 168.928 101.072 194 132 194C162.928 194 188 168.928 188 138V130C188 160.928 162.928 186 132 186C101.072 186 76 160.928 76 130Z" fill="black" fill-opacity="0.1"/>
</g>
<path fill-rule="evenodd" clip-rule="evenodd" d="M182 206.348C182 222.629 159.838 235.828 132.5 235.828C105.162 235.828 83 222.629 83 206.348C83 204.871 83.1822 203.42 83.534 202.002C53.7388 210.82 32 238.397 32 271.052V280H232V271.052C232 238.792 210.784 211.488 181.544 202.33C181.845 203.644 182 204.985 182 206.348Z" fill="#E6E6E6"/>
<mask id="mask1" mask-type="alpha" maskUnits="userSpaceOnUse" x="32" y="202" width="200" height="78">
<path fill-rule="evenodd" clip-rule="evenodd" d="M182 206.348C182 222.629 159.838 235.828 132.5 235.828C105.162 235.828 83 222.629 83 206.348C83 204.871 83.1822 203.42 83.534 202.002C53.7388 210.82 32 238.397 32 271.052V280H232V271.052C232 238.792 210.784 211.488 181.544 202.33C181.845 203.644 182 204.985 182 206.348Z" fill="white"/>
</mask>
<g mask="url(#mask1)">
<rect y="170" width="264" height="110" fill="#E6E6E6"/>
</g>
<path fill-rule="evenodd" clip-rule="evenodd" d="M118 149C118 156.732 124.268 163 132 163C139.732 163 146 156.732 146 149" fill="black" fill-opacity="0.7"/>
<path fill-rule="evenodd" clip-rule="evenodd" d="M120 130C120 134.418 125.373 138 132 138C138.627 138 144 134.418 144 130" fill="black" fill-opacity="0.16"/>
<path fill-rule="evenodd" clip-rule="evenodd" d="M106 118C109.314 118 112 115.314 112 112C112 108.686 109.314 106 106 106C102.686 106 100 108.686 100 112C100 115.314 102.686 118 106 118Z" fill="black" fill-opacity="0.6"/>
<path fill-rule="evenodd" clip-rule="evenodd" d="M158 118C161.314 118 164 115.314 164 112C164 108.686 161.314 106 158 106C154.686 106 152 108.686 152 112C152 115.314 154.686 118 158 118Z" fill="black" fill-opacity="0.6"/>
<path d="M91.6303 99.1586C95.5452 93.6499 106.278 90.5608 115.523 92.8312C116.596 93.0946 117.679 92.4386 117.942 91.3659C118.206 90.2932 117.55 89.21 116.477 88.9466C105.74 86.31 93.3121 89.887 88.3698 96.8414C87.7299 97.7418 87.9411 98.9904 88.8414 99.6302C89.7418 100.27 90.9904 100.059 91.6303 99.1586Z" fill="black" fill-opacity="0.6"/>
<path d="M172.37 99.1586C168.455 93.6499 157.722 90.5608 148.477 92.8312C147.405 93.0946 146.321 92.4386 146.058 91.3659C145.795 90.2932 146.451 89.21 147.523 88.9466C158.26 86.31 170.688 89.887 175.631 96.8414C176.27 97.7418 176.059 98.9904 175.159 99.6302C174.259 100.27 173.01 100.059 172.37 99.1586Z" fill="black" fill-opacity="0.6"/>
<mask id="mask2" mask-type="alpha" maskUnits="userSpaceOnUse" x="0" y="0" width="264" height="280">
<rect width="264" height="280" fill="white"/>
</mask>
<g mask="url(#mask2)">
<path fill-rule="evenodd" clip-rule="evenodd" d="M89.9103 55.3613H174.086C192.333 44.8338 195.759 26.151 182.85 9.926C179.636 5.88682 174.086 21.6756 157.029 22.6505C139.972 23.6254 141.609 16.3499 123.458 19.0739C105.306 21.798 107.312 36.3784 95.4672 39.8768C83.6228 43.3752 89.9103 55.3613 89.9103 55.3613Z" fill="#252E32"/>
<mask id="mask3" mask-type="alpha" maskUnits="userSpaceOnUse" x="88" y="9" width="103" height="47">
<path fill-rule="evenodd" clip-rule="evenodd" d="M89.9103 55.3613H174.086C192.333 44.8338 195.759 26.151 182.85 9.926C179.636 5.88682 174.086 21.6756 157.029 22.6505C139.972 23.6254 141.609 16.3499 123.458 19.0739C105.306 21.798 107.312 36.3784 95.4672 39.8768C83.6228 43.3752 89.9103 55.3613 89.9103 55.3613Z" fill="white"/>
</mask>
<g mask="url(#mask3)">
<rect width="264" height="280" fill="#724133"/>
</g>
<g filter="url(#filter0_d)">
<path fill-rule="evenodd" clip-rule="evenodd" d="M115.249 100.275C117.621 100.298 118.742 100.692 119.146 103.165C119.555 105.671 119.157 108.487 118.685 110.955C117.965 114.723 116.767 118.415 113.978 121.169C112.508 122.619 110.717 123.775 108.811 124.564C107.799 124.984 106.73 125.286 105.661 125.516C105.349 125.583 102.682 125.95 104.318 125.764C100.501 126.199 96.3601 126.182 93.1724 123.753C89.6396 121.06 87.2203 116.8 86.1565 112.556C85.5341 110.073 84.2263 104.135 86.6159 102.149C89.3532 99.8745 115.249 100.275 115.249 100.275ZM91.2178 93.4905C85.7775 93.6778 82.1467 94.6338 79.4633 100.069C74.5457 110.03 82.9628 124.969 92.3523 129.04C103.329 133.799 115.592 128.532 121.396 119.006C124.469 113.962 126.022 106.323 125.922 100.504C125.795 93.0765 120.607 92.8705 114.509 93.0338L91.2178 93.4905Z" fill="#D6EAF2"/>
<path fill-rule="evenodd" clip-rule="evenodd" d="M148.681 100.273C146.309 100.295 145.188 100.689 144.784 103.163C144.374 105.668 144.772 108.485 145.244 110.952C145.965 114.72 147.163 118.412 149.952 121.166C151.421 122.616 153.213 123.772 155.119 124.562C156.131 124.981 157.2 125.284 158.268 125.513C158.581 125.58 161.247 125.948 159.612 125.761C163.429 126.197 167.57 126.179 170.757 123.75C174.29 121.058 176.709 116.798 177.773 112.554C178.396 110.071 179.703 104.132 177.314 102.147C174.576 99.8719 148.681 100.273 148.681 100.273ZM172.712 93.4879C178.152 93.6752 181.783 94.6316 184.466 100.067C189.384 110.028 180.967 124.966 171.577 129.037C160.6 133.797 148.338 128.529 142.534 119.004C139.461 113.96 137.907 106.321 138.007 100.501C138.135 93.0739 143.323 92.8679 149.421 93.0316L172.712 93.4879Z" fill="#D6EAF2"/>
<path fill-rule="evenodd" clip-rule="evenodd" d="M82.1969 97.9267C78.785 98.1184 74.8861 98.1644 71.6901 99.6394C68.3054 101.201 67.7823 104.739 72.0492 105.226C73.9709 105.446 75.8949 105.083 77.7872 104.745C79.3369 104.468 81.442 104.558 82.9065 103.966C85.6355 102.862 85.4603 97.74 82.1969 97.9267Z" fill="#D6EAF2"/>
<path fill-rule="evenodd" clip-rule="evenodd" d="M181.735 97.9267C185.147 98.1184 189.046 98.1644 192.242 99.6394C195.626 101.201 196.149 104.739 191.882 105.226C189.961 105.446 188.037 105.083 186.144 104.745C184.595 104.468 182.49 104.558 181.025 103.966C178.296 102.862 178.471 97.74 181.735 97.9267Z" fill="#D6EAF2"/>
<path fill-rule="evenodd" clip-rule="evenodd" d="M142.109 100.013C140.163 97.7126 135.091 96.3846 131.891 96.3846C128.691 96.3846 123.768 97.7126 121.822 100.013C120.841 101.172 120.807 102.724 122.508 103.451C124.626 104.357 126.517 102.714 128.213 101.855C130.381 100.757 133.712 100.877 135.719 101.855C137.427 102.688 139.305 104.357 141.423 103.451C143.124 102.724 143.091 101.172 142.109 100.013Z" fill="#D6EAF2"/>
</g>
</g>
<defs>
<filter id="filter0_d" x="69" y="93.0001" width="125.932" height="39.8202" filterUnits="userSpaceOnUse" color-interpolation-filters="sRGB">
<feFlood flood-opacity="0" result="BackgroundImageFix"/>
<feColorMatrix in="SourceAlpha" type="matrix" values="0 0 0 0 0 0 0 0 0 0 0 0 0 0 0 0 0 0 127 0"/>
<feOffset dy="2"/>
<feColorMatrix type="matrix" values="0 0 0 0 0 0 0 0 0 0 0 0 0 0 0 0 0 0 0.1 0"/>
<feBlend mode="normal" in2="BackgroundImageFix" result="effect1_dropShadow"/>
<feBlend mode="normal" in="SourceGraphic" in2="effect1_dropShadow" result="shape"/>
</filter>
</defs>
</svg>
